<?xml version="1.0" encoding="utf-8"?>
<!-- Generator: Adobe Illustrator 27.1.0, SVG Export Plug-In . SVG Version: 6.00 Build 0)  -->
<svg version="1.1" xmlns="http://www.w3.org/2000/svg" xmlns:xlink="http://www.w3.org/1999/xlink" x="0px" y="0px"
	 viewBox="0 0 600 600" style="enable-background:new 0 0 600 600;" xml:space="preserve">
<style type="text/css">
	.st0{fill:#61C0C1;}
</style>
<g id="background">
</g>
<g id="objects">
	<g>
		<path class="st0" d="M363.57,314.9c-5.33,0.15-11.7,0.52-16.7,0.66c-5,0.14-8.68,0.14-8.68,0.14c-2.97,0.22-5.94,0.35-8.93,0.44
			c-8.03,0.17-16.17,0.16-24.18-0.19c-8.02-0.34-16-1.03-23.75-2.36c-3.01-0.53-5.98-1.19-8.86-1.98c3.96-2.08,7.9-4.15,9.31-4.92
			c2.94-1.62,3.96-3.76,5.21-7.39c-3.72-1.02-6.08-1.39-9.08,0.12c-1.63,0.82-6.46,3.36-10.9,5.7c-2.88,1.52-5.63,2.97-7.65,4.04
			c-3.05,1.66-5.01,2.73-5.01,2.73s-0.03,0.02-0.09,0.05c-0.03,0.02-0.07,0.04-0.11,0.06c-0.03,0.03,0.05,0.08,0.08,0.13
			c0.16,0.21,0.4,0.52,0.71,0.91c0.61,0.78,1.49,1.9,2.56,3.27c0.53,0.68,1.15,1.42,1.79,2.21c0.32,0.39,0.65,0.8,0.99,1.21
			c0.2,0.23,0.4,0.47,0.6,0.71c0.74,0.87,1.54,1.81,2.36,2.77c3.28,3.77,6.85,7.87,8.05,9.24c2.21,2.49,4.47,2.95,8.29,3.53
			c0.36-3.82,0.16-6.26-1.98-8.87c-0.73-0.9-2.45-2.88-4.43-5.16c2.15,0.5,4.31,0.93,6.46,1.32c8.38,1.43,16.73,2.13,25.04,2.48
			c8.33,0.36,16.56,0.36,24.88,0.18c2.68-0.08,5.36-0.19,8.05-0.38c0,0,1.77-0.21,4.4-0.6c2.62-0.39,6.09-0.98,9.49-1.66
			c6.79-1.36,13.26-2.99,12.67-2.99C374.92,317.3,381.59,313.94,363.57,314.9z"/>
	</g>
</g>
</svg>
